<?xml version="1.0" encoding="UTF-8"?>
<svg id="Layer_1" xmlns="http://www.w3.org/2000/svg" version="1.1" viewBox="0 0 332.1 276.9">
  <!-- Generator: Adobe Illustrator 29.3.1, SVG Export Plug-In . SVG Version: 2.1.0 Build 151)  -->
  <defs>
    <style>
      .st0 {
        fill: none;
      }

      .st1 {
        fill: #002b43;
      }

      .st2 {
        fill: #769fbe;
      }
    </style>
  </defs>
  <g>
    <path class="st2" d="M183,186.3v-18.3c0-.5.4-.8,1-.8,5.8,0,7.7-.3,7.7-1.4,0-2.5-9.3-2.2-9.3-8.8s3.1-7.7,12.7-7.7,12.9,2.4,12.9,9.6h0c0,.5-.4.9-1,.9h-6.6c-.6,0-1-.3-1-.8,0-2.4-.3-4.6-3.7-4.6s-3.3,1.7-3.3,2.9c0,6.8,17.2,4.3,17.2,18.4s-5.7,11.3-16.3,11.3h-9.4c-.6,0-1-.3-1-.8h.1Z"/>
    <path class="st2" d="M212.6,186.3v-35.7c0-.5.6-.8,1.5-.8h9.3c.8,0,1.5.3,1.5.8v7.7c0,.5.5.8,1.3.8h2.1c.8,0,1.4-.3,1.4-.8v-7.7c0-.5.6-.8,1.5-.8h9.3c.8,0,1.4.3,1.5.8v35.7c0,.5-.6.8-1.5.8h-9.3c-.9,0-1.5-.3-1.5-.8v-20.9c0-.5-.6-.8-1.4-.8h-2.1c-.9,0-1.3.3-1.3.8v20.9c0,.5-.6.8-1.5.8h-9.1c-.9,0-1.7-.3-1.7-.8Z"/>
    <path class="st0" d="M244.6,174.5c0-15,6.3-25,15.7-25s15,9.6,15,25-5.4,12.8-15.4,12.8-15.4-4.6-15.4-12.8h0ZM263.8,162.3c0-4.1-1.5-7.2-3.5-7.2s-4,3-4,7.2,1.6,3.6,4,3.6,3.5-1.4,3.5-3.6Z"/>
    <path class="st2" d="M277.9,186.3v-35.7c0-.5.4-.8,1-.8h11.7c12.4,0,17,3.6,17,8.8s-4.6,7.8-8,8.5c-.5.1-.7.3-.7.4s.3.2.8.3c5.1,1,7.1,2.1,7.1,5.1v13.4c0,.5-.4.8-1,.8h-10c-.6,0-1-.3-1-.8v-13.7c0-1.7-1.7-2.1-3.1-2.1s-1.5.2-1.5.7v15.1c0,.5-.4.8-1,.8h-10.3c-.6,0-1-.3-1-.8ZM291,163.5c1.7,0,5.3-1.1,5.3-4.4s-3.2-3.7-4.9-3.7-1.1.1-1.1.3v7.5c0,.2.3.3.8.3h0Z"/>
    <path class="st2" d="M329.1,187.1h-9.6c-5.6,0-8.9-2.5-8.9-7.2v-29.3c0-.5.6-.8,1.5-.8h16.4c.9,0,1.5.3,1.5.8v3.9c0,.5-.6.8-1.5.8h-4.2c-.8,0-1.4.3-1.4.8v2.2c0,.5.6.8,1.4.8h2.8c.8,0,1.4.3,1.4.8v3.9c0,.5-.6.8-1.4.8h-2.8c-.8,0-1.4.2-1.4.3v1.7c0,.5.6.8,1.4.8h4.8c.8,0,1.4.3,1.4.8v18.2c0,.5-.6.8-1.4.8h0Z"/>
  </g>
  <path class="st1" d="M160.2,4.4c4.5,5.3,4.8,17.2,6,24,9.3,2.7,18.8,7.5,22.1,18.3,17.1,1.9,34.3.2,51.4,1.3,3.9.3,6,1,9.5,1.4,17.4,2,47.9,2.1,50,27.8,1.6,20.5-15.8,33.5-31.6,38.1-2.3,8.8,13.9,9.6,7.4,17.5s-27.3,4.6-32.6-6.2c-.8-1.7-1.1-5.5-2.8-5.6-8.8.9-17.6,2.4-26.3,3.1-3.5.3-21.9.3-23.1,1.4s-1.2,3-2.1,4.2c-4.4,5.6-10.9,2.7-16.5,2.5,0,8-.2,16-.5,23.9-1,22-2.1,44.4-2.3,66.4,0,8.6,1.8,21.8-.2,29.5-2,7.7-10,11.9-14,16.2s-1.3,2.8-2.6,4c-3.3,2.9-15.5,4.6-17.9,0-4.6-8.6,12.7-14.2,13.5-21.1,1.5-12.3-1.1-28.3,0-41,0-1.5.6-2.8.6-4.3.4-18.1.4-36.1.5-54.1,0-3.3,2.7-19.3,1.1-20.8-4.3-.8-4.6,6.7-5,10.2-3.4,30-1.8,61.2-3.3,91.3-.2,3.2-.6,8.4-1.5,11.3-1.4,4.3-5.1,6.8-7.7,10.1-3.8,4.7-3.7,8.6-10.8,9.8-3.3.6-13.1,0-12.9-5.6.3-5.8,8.3-10.4,10.5-15,.2-12.8,1.2-25.7,1.7-38.5.6-16.1,0-32.3,1.7-48.4l-.6-28.9h-28.9c-21-.8-76.9-7-90.1-26.8-7.8-11.7,7.1-20.8,15-24.9,27.4-14.1,64.2-21.1,94.2-24.7,2.7-.3,7,.7,9.2-1s2.1-4.3,3-6c3.9-6.5,10.2-11.7,17.1-13.7-.6-9.8,2.7-33.7,16.1-27.9.7.3,2.4,1.6,2.8,2.1h0ZM169.9,60.1l-36.7,1.8c-32,3.5-68,7.9-98.1,21.1-1.2.5-2.6,1-3.1,2.5,6.6-.5,13.3-.3,19.9-.6,36.5-1.6,73.2-4.2,109.8-6.8,1.4,0,9.7.3,9.8-1l-1.7-17h0ZM276.9,74.4c-.4-5.8-5.1-7.8-9.5-9-10.9-3.1-26.3-3.4-37.8-4-12.6-.7-25.3-.4-37.8-1.2l1.1,16.8,84-2.5h0ZM275.8,87.4h-10.1v12.4c4.5-2.3,9.2-6.7,10.1-12.4ZM238.3,88.7l-45.4,1.2-1.1,22.4,46.5-4c1.4-1.1-.9-16.7,0-19.6h0ZM25.9,98c3.7,4.5,10.1,6.6,15.3,8.1,40.4,12.1,84.7,7.5,126.2,7.4,1.9,0,2.3-2,2.9-3.6l1.1-18.5s-145.5,6.6-145.5,6.6Z"/>
  <path class="st0" d="M25.9,98l145.5-6.6-1.1,18.5c-.6,1.6-1,3.7-2.9,3.6-41.5,0-85.8,4.7-126.2-7.4-5.2-1.6-11.6-3.7-15.3-8.1Z"/>
  <path class="st0" d="M169.9,60.1l1.7,17c-.1,1.3-8.5.9-9.8,1-36.5,2.6-73.2,5.3-109.8,6.8-6.6.3-13.3,0-19.9.6.5-1.5,1.9-2,3.1-2.5,30.1-13.2,66.1-17.5,98.1-21.1l36.7-1.8h0Z"/>
  <path class="st0" d="M276.9,74.4l-84,2.5-1.1-16.8c12.6.8,25.2.5,37.8,1.2,11.5.6,26.9,1,37.8,4,4.4,1.2,9.1,3.2,9.5,9h0Z"/>
  <path class="st0" d="M238.3,88.7c-.8,2.9,1.5,18.5,0,19.6l-46.5,4,1.1-22.4,45.4-1.2h0Z"/>
  <path class="st0" d="M275.8,87.4c-.8,5.7-5.6,10.1-10.1,12.4v-12.4h10.1Z"/>
  <g>
    <path class="st2" d="M182.8,252v-54.9c0-.7.5-1.2,1.2-1.2h16.7c9.3,0,14,3.1,14,9.2s-1.8,6.5-4.8,8.3c-.4.2-.7.5-.7.7s.2.3.7.6c5.8,3.4,8.1,11.1,8.1,18.4,0,10.9-3.7,20.2-17.9,20.2h-16.2c-.7,0-1.2-.5-1.2-1.2h0ZM199.1,211.1c1.7,0,4.8-1.5,4.8-3.9s-2.9-3.4-4.6-3.4-1.3.2-1.3.6v6.1c0,.4.4.7,1.1.7h0ZM199.1,224.8c2,0,5.8-1.4,5.8-4.3s-3.4-3.8-5.4-3.8-1.6.2-1.6.7v6.9c0,.3.4.5,1.1.5h0Z"/>
    <path class="st2" d="M221.4,252v-45.4c0-.7.5-1.2,1.2-1.2h7c.7,0,1.2.5,1.2,1.2v4.2c0-2.7,4.8-5.4,12.5-5.4s1.3.4,1.3,1.2v7.5c0,.7-.3,1.3-1.1,1.3-5.3,0-7.5,2.9-7.5,8.6v28c0,.7-.5,1.2-1.2,1.2h-12.2c-.7,0-1.2-.5-1.2-1.2h0Z"/>
    <path class="st2" d="M242.6,235.4c0-9.7,4.8-30.4,19.7-30.4s13.4,5.8,13.4,15.2-.5,1.2-1.2,1.2h-15.6c-.7,0-1.3.3-1.3,1.1,0,3.8,4.2,5.3,17,5.3s1.3.5,1.3,1.2v22.9c0,.7-.5,1.2-1.2,1.2h-10c-12.8,0-22.1-4.3-22.1-17.8h0ZM264.9,214.1c-.4-1.1-1.1-1.8-2.4-1.8s-2.5.7-3.2,1.7c-.2.2-.2.5-.2.7,0,.5.4.8,1.1.8h3.8c.8,0,1.3-.6,1-1.4h0Z"/>
    <path class="st2" d="M286.3,252.1l-9.6-45.4v-.3c0-.7.4-1.1,1.1-1.1h10c.7,0,1.1.4,1.3,1.1l4.8,21.2c0,.3.7.2.7,0l5.5-21.2c.2-.7.7-1.1,1.3-1.1h6.1c.7,0,1.1.3,1.3,1l5.7,21.3c0,.2.6.2.7,0l3.9-21.2c.2-.7.6-1.1,1.3-1.1h9.6c.7,0,1.1.6,1,1.4l-9,45.4c-.2.7-.6,1.1-1.3,1.1h-11c-.7,0-1.1-.4-1.3-1.1l-3.8-20.2c0-.2-.7-.2-.7,0l-4.3,20.2c-.2.7-.7,1.1-1.3,1.1h-10.6c-.7,0-1.1-.4-1.3-1.1h-.1Z"/>
  </g>
  <g id="wCNRV7.tif">
    <g>
      <path class="st2" d="M262.4,161.9c1.5-1.6,3.1-2.5,3.9-4.6,2.5-6.4-2.9-7.5-7.8-5.8-10.6,3.6-17,20.7-11.2,30.3.6,1.1,1.8,2.6,2.9,3.1s1,.5,1.4,0c.4-1.3.3-2.6.6-3.9,1.1-4.7,5.4-7.3,7.2-11.8,1.1-2.9.7-5,3-7.4h0ZM271.4,154.7c-.5-.5-2.6-2.4-3.3-1.7s0,3-.2,3.7c-.4,4.2-3.6,5.1-5.1,8.3s-1,3.6-1.6,5.4c-1.5,4.3-5.3,6.7-7.2,10.7-1.4,3.1-1.8,5.8,2.4,6,7.4.5,14-7.5,16.4-13.7,2.2-5.6,2.7-14-1.6-18.8h.2Z"/>
      <path class="st2" d="M262.4,161.9c-2.3,2.4-1.9,4.5-3,7.4-1.7,4.5-6,7.1-7.2,11.8s-.2,2.7-.6,3.9c-.4.5-1,.2-1.4,0-1.1-.6-2.3-2.1-2.9-3.1-5.8-9.7.6-26.7,11.2-30.3,10.6-3.6,10.3-.6,7.8,5.8s-2.4,3-3.9,4.6h0Z"/>
      <path class="st2" d="M271.4,154.7c4.3,4.8,3.7,13.2,1.6,18.8-2.4,6.3-9,14.2-16.4,13.7-4.2-.3-3.8-2.9-2.4-6,1.9-4.1,5.7-6.4,7.2-10.7s.8-3.7,1.6-5.4c1.5-3.2,4.6-4.1,5.1-8.3s-.1-3.3.2-3.7c.7-.8,2.8,1.2,3.3,1.7h-.2Z"/>
    </g>
  </g>
</svg>