<?xml version="1.0" encoding="UTF-8"?>
<svg id="Layer_1" xmlns="http://www.w3.org/2000/svg" version="1.1" viewBox="0 0 702.2 442.9">
  <!-- Generator: Adobe Illustrator 29.1.0, SVG Export Plug-In . SVG Version: 2.1.0 Build 142)  -->
  <defs>
    <style>
      .st0 {
        fill: #f47a42;
      }

      .st0, .st1, .st2, .st3 {
        stroke: #913f20;
      }

      .st0, .st1, .st2, .st3, .st4 {
        stroke-miterlimit: 10;
        stroke-width: 1.6px;
      }

      .st5 {
        fill: #fcf5ea;
      }

      .st6 {
        isolation: isolate;
      }

      .st1 {
        fill: #fdf3d6;
      }

      .st7 {
        fill: #913f20;
      }

      .st2, .st4 {
        fill: none;
      }

      .st3 {
        fill: #fdc16a;
      }

      .st4 {
        stroke: #a97c50;
      }
    </style>
  </defs>
  <g>
    <path class="st1" d="M272.9,44.7s-55.2,16.2-57.3,33c0,0-2.2,4.9-25.7,2.9,0,0-9.1,3-3.4,14.1,0,0-1.9,3.7-18.4,0s-8.5,26.3-8.5,26.3c0,0,2,6.3-11.6,8.5-13.6,2.1-8.2,24.4-8.2,24.4,0,0,15.8,27.8,14,39.8s13.2,22.6,13.2,22.6c0,0-2,29.7,21.6,23.2,0,0,5.2,5.8,12.9,7s182.8.8,197.6-1.6c0,0,3.2-1,8.6,2.4,5.3,3.5,14.5,3.2,26.5-2.5,12-5.6,20.5.8,20.5.8,0,0,14.1,3.7,27.6-2.7,0,0,4.6-2.9,23.2-3.2s18.8-26,17.9-34.6S273,44.7,273,44.7h-.1Z"/>
    <path class="st3" d="M338.6,154.1l198.8-5s-16,46.8-14.2,59.1-37.7,6.2-40,6.8c-12.8,3.6-14.6,8.8-24.8,8.5-10.8-.3-22.5-6.3-30.2-4.8-28.4,5.5-72.7,8.5-108.4.1-9.2-2.2-10.9,7-22.1,6.9-17.1-.2-42-9-50-5.5-14.3,6.4-29.5-.5-48,.8-4.9.3-11.4,15.5-18.5-42.2-.4-3.3-.5-6.6-.1-9.8.7-6.7,2.5-17.5,7.2-20.5.6-.4,12.8,11.5,97.3,1.9,0,0,22.2-2.8,41.5,2.4,3.7,1,7.5,1.5,11.3,1.5h0l.2-.2Z"/>
    <path class="st0" d="M537,148.8s-59.4-30.7-92.8-35.9c-3.7-.6-27.6-15.2-27.6-15.2,0,0-18-7.1-41.4-9.6,0,0-1.2-4.5-29.6-11.1l-110.5,13.7s-21.2-1.3-22.9,10.6-5.8,8.8-14.7,9.2-6,7.8-6,7.8c0,0,13,2.2,14.2,14.3s-17,15.4-17,15.4c0,0-.2.4,1.3,1.2.8.4,11,10.3,95.6.6,0,0,22.2-2.8,41.5,2.4,3.7,1,7.5,1.5,11.3,1.5l196.6-4.7s3.4,0,2-.2h0Z"/>
    <g>
      <path class="st4" d="M312.1,119.7c3.7.4,7.5,0,11-1.3,1.6-.5,3.2-1.2,4.8-1.5,5-1,9.5.4,14.5.5.3.4.4,0,.8-.2,1.1-.9,2-2.2,2.5-3.6"/>
      <g>
        <g>
          <path class="st5" d="M363.3,106.6c3.4-1.5,6.8-3.4,9.1-6.7,3.3-4.8,3.2-11.8,1.1-17.4s-5.9-9.8-9.4-14.4c-11.6-15.1-27.7-24.3-43.4-33.2-3.6-2-7.3-4-11.2-5.3-2.8-.9-6.2-2.6-6.2-6.7s1.2-5.5,2.8-7.6l1.7-2.1c1.9-1.6-3,.3-10.8,4.4,0,0-7.7,4-17.4,12-2.5,2-4.8,4.2-7.1,6.5-9.5,10.1-15.4,23.9-24.4,34.5-2,2.3-2.5,5.4-4.1,8.1-1.5,2.6-3,5.3-3.7,8.3-1.8,7,.7,15,5.5,19.9l4.7,4.9c7.1,1.1,16.7,3.7,21.2,5.7h5.3c1.1-.5,9,.9,17.5,3.1,0,0,16.5,4.2,31.4-2.1l.4-.2c.2-.5,6.5.6,14.1,2.4l6.9-1.5c3.8-.8,7.5-2.3,10.6-4.9s5.5-6.5,6-10.9c.8-6.7-2.7-13-6.1-18.7-13.4-22.3-38-45-38-45-6.5-6-12.1-7-12.5-2.3l3.1,5.2c3.5,5.8,6.4,12.1,8.7,18.6,1.6,4.4,2.9,9,4.2,13.6,1.9,6.6,3.7,13.2,5.6,19.7,1.3,4.5,2.6,9.2,2.3,13.9l-.2,3.2c-1.4,3.2-3.2,5.6-3.9,5.3l-.3-.7"/>
          <path class="st2" d="M363.3,106.6c3.4-1.5,6.8-3.4,9.1-6.7,3.3-4.8,3.2-11.8,1.1-17.4s-5.9-9.8-9.4-14.4c-11.6-15.1-27.7-24.3-43.4-33.2-3.6-2-7.3-4-11.2-5.3-2.8-.9-6.2-2.6-6.2-6.7s1.2-5.5,2.8-7.6l1.7-2.1c1.9-1.6-3,.3-10.8,4.4,0,0-7.7,4-17.4,12-2.5,2-4.8,4.2-7.1,6.5-9.5,10.1-15.4,23.9-24.4,34.5-2,2.3-2.5,5.4-4.1,8.1-1.5,2.6-3,5.3-3.7,8.3-1.8,7,.7,15,5.5,19.9l4.7,4.9c7.1,1.1,16.7,3.7,21.2,5.7h5.3c1.1-.5,9,.9,17.5,3.1,0,0,16.5,4.2,31.4-2.1l.4-.2c.2-.5,6.5.6,14.1,2.4l6.9-1.5c3.8-.8,7.5-2.3,10.6-4.9s5.5-6.5,6-10.9c.8-6.7-2.7-13-6.1-18.7-13.4-22.3-38-45-38-45-6.5-6-12.1-7-12.5-2.3l3.1,5.2c3.5,5.8,6.4,12.1,8.7,18.6,1.6,4.4,2.9,9,4.2,13.6,1.9,6.6,3.7,13.2,5.6,19.7,1.3,4.5,2.6,9.2,2.3,13.9l-.2,3.2c-1.4,3.2-3.2,5.6-3.9,5.3l-.3-.7"/>
        </g>
        <path class="st2" d="M311.9,119.1c3.6-6,2.4-13.3,2.2-20.7-.2-7.1-2.7-13.8-4-20.8-.8-4.6-1.1-9.3-1.5-13.9-1-11.4-2.8-22.7-4.8-34"/>
        <path class="st2" d="M294.6,117.7c-1.9-6.2-3.5-12.7-2.8-19.2.4-3.7,1.6-7.2,2.3-10.9,1.2-6.2.9-12.7.6-19-.4-9.9,3.8-20.7,9.6-28.1"/>
        <path class="st2" d="M277.3,114.1c0-2.5-1.6-4.5-2.5-6.8-2.3-5.3-1.9-11.6-1-17.4,1.5-9.2,4-18.2,7.5-26.6,5.5-13.2,15.2-23.8,19.4-37.6"/>
        <path class="st2" d="M300.7,26.1c.2-.8.5-1.5.8-2.3.2-.5.3-.9.4-1.4v-1c0-.4,0-.9-.3-1.2-.3-.4-1-.4-1.4-.4-6.2,6-12.4,11.9-18.6,17.9-4,3.9-8.1,7.8-11.6,12.3-2.1,2.7-4,5.6-5.7,8.6-4.3,7.9-7.1,17-7.4,26.3-.2,9.3,2.2,18.9,7.3,26.1,2.9,4.1,8.8,3.6,13.4,2.7,2.2-.5,4.5,1.1,6.8,1.7,3.5,1,7.1,1.8,10.7,1.8,5.1,0,10.1,1.6,15.1,2.3.9,0,1.9,0,2.3-.8.3-.8.5-1.5,1-2.2.4-.7.2-1.5.3-2.3"/>
        <path class="st2" d="M304.2,40.7c.6-.6,1-1.4,1.2-2.3"/>
        <path class="st2" d="M309.6,39.9c1.6.7,2.8,2.1,4,3.6,5.1,6.2,10.1,12.5,15.2,18.7,3,3.7,6,7.5,8.1,11.9,3.4,7.2,10.5,12.9,12.4,20.8.8,3.3,1.2,6.8.3,10-.5,2.1-1.6,4-2.6,5.9-1.5,2.7-3.2,5.6-5.8,6.7"/>
        <path class="st2" d="M304,30.4c0-1.4-.6-2.6-.9-4-.3-1.5-.3-3-.7-4.4"/>
        <path class="st2" d="M310.4,40.3c-.2,0-.4-.2-.6-.4-.8-.6-1.8-1.5-2.1-2.6-.2-.8,0-1.5,0-2.2.3-2.5-.6-4.9-2.3-6.5-.8-.8-1.2-1.7-1.8-2.7"/>
        <path class="st2" d="M307.4,30.7c-.1-.2,0-.5,0-.8,0-.5-.4-.9-.8-.8"/>
      </g>
    </g>
    <path class="st2" d="M342.2,116.8c-1,.9-2.3,1-3.5,1-2.8,0-5.6,0-8.3-.3-1-.2-2-.4-3-.5-5.6-.4-11,3.8-16.5,2.4"/>
  </g>
  <g class="st6">
    <g class="st6">
      <g class="st6">
        <path class="st7" d="M26.9,371.5v-80.3c0-15.7,8.2-25.2,21.3-25.2s9.3,1.5,12.9,5c1.5,1.5,2.2,2.1,3.2,2.1s1.5-.7,1.9-2.6l.6-3c.2-.7.4-.9,1.1-.9h.6c.4,0,.7.2.7.7v41.3c0,.6-.4.7-.7.7h-.6c-.6,0-.9-.2-1.1-.9l-2.4-14c-3.2-18.7-7.1-24.5-15.3-24.5s-10.8,4.9-10.8,15.3v92.2c0,10.8,3.7,15.3,11.6,15.3s16.8-7.8,16.8-21.8v-17.6c0-1.1.4-1.5,1.5-1.5h.7c1.1,0,1.5.4,1.5,1.5v18.1c0,15.7-8.2,25.2-21.7,25.2s-21.7-9.5-21.7-25.2Z"/>
        <path class="st7" d="M80.7,394.1v-.4c0-.6.2-.9,1.1-1.1l.9-.2c2.6-.6,3-1.1,3-3.2v-82.2c0-2.1-.4-2.6-3-3.2l-.9-.2c-.9-.2-1.1-.6-1.1-1.1v-.4c0-.4.2-.7.7-.7h12.5c.9,0,1.1.6,1.1,1.5v11.6h.2c2.2-9.9,6.7-14.9,13.6-14.9s11.6,5.2,11.6,17.4-3.5,11-8,11-6.7-2.8-6.7-6.9,2.6-6.9,6.3-6.9,2.6.4,3.5,1.1h.2v-1.3c0-8-3.2-10.8-7.3-10.8-8,0-12.1,9.3-12.7,25v60.5c0,2.2.6,2.8,4.5,3.5l1.9.4c.9.2,1.1.6,1.1,1.1v.4c0,.4-.2.7-.7.7h-21.1c-.6,0-.7-.4-.7-.7Z"/>
        <path class="st7" d="M130.8,378.4v-71.3c0-2.1-.4-2.6-3-3.2l-.9-.2c-.9-.2-1.1-.6-1.1-1.1v-.4c0-.4.2-.7.7-.7h12.9c.9,0,1.5.6,1.5,1.5v81c0,6.3,1.7,9,5.6,9,5.6,0,9.5-6,11.9-16.8v-69.1c0-2.1-.4-2.6-3-3.2l-.9-.2c-.9-.2-1.1-.6-1.1-1.1v-.4c0-.4.2-.7.7-.7h12.9c.9,0,1.5.6,1.5,1.5v86.3c0,2.1.4,2.6,3,3.2l.9.2c.9.2,1.1.6,1.1,1.1v.4c0,.4-.2.7-.7.7h-11.9c-.9,0-1.5-.6-1.5-1.5v-9.7h-.2c-3.2,9-7.8,13.1-14.9,13.1s-13.4-6.3-13.4-18.3Z"/>
        <path class="st7" d="M181.3,376.3c0-5.4,3.2-9.1,7.7-9.1s6.9,2.8,6.9,6.9-2.6,6.9-6.3,6.9-2.4-.4-3.2-.9h-.2c0,8.4,6,13.1,13.8,13.1s13.4-5.8,13.4-16.6-1.9-11-6.9-16.6l-14.6-15.7c-7.5-8-9.7-14.4-9.7-24.3s7.3-20.4,18.5-20.4,16.6,6.9,16.6,18.3-3.2,9-7.7,9-6.9-2.8-6.9-6.9,2.6-6.9,6.3-6.9,2.1.2,3,.7h.2c-.2-6.9-4.9-10.6-11.2-10.6s-11.8,5-11.8,13.8,1.9,11,6.9,16.6l14.6,15.7c7.5,8,9.7,14.4,9.7,24.3,0,14.4-7.5,23.2-20.2,23.2s-19-7.7-19-20.4Z"/>
        <path class="st7" d="M235.7,381.7v-76.9h-10.5c-.7,0-1.1-.4-1.1-1.1v-.6c0-.7.4-1.1,1.1-1.1,10.5,0,15.1-4.5,16.4-17.4l1.7-15.7c.2-.9.6-1.1,1.1-1.1h.4c.6,0,.9.4.9.9v32.7h13.8c.7,0,1.1.4,1.1,1.1v1.1c0,.7-.4,1.1-1.1,1.1h-13.8v81.6c0,4.7,1.3,6.5,4.5,6.5,4.7,0,7.1-3.7,7.1-11.4v-19.4c0-.7.4-1.1,1.1-1.1h1.1c.7,0,1.1.4,1.1,1.1v19.6c0,9.9-4.1,14.9-12.1,14.9s-12.9-5-12.9-14.9Z"/>
        <path class="st7" d="M295.6,366c0-17,3.2-25.6,15.7-43.1l-4.7-11c-3.7-8.8-5.6-17.4-5.6-24.5,0-13.8,5.8-21.5,16.1-21.5s14.7,6.9,14.7,20.2-2.8,17.5-12.3,31.9l9,20.5h.2c2.4-23.2,7.3-29.3,16.6-29.3s9,3.5,9,7.7-2.6,7.3-6.7,7.3-6.7-2.8-6.7-6.5.2-2.1.7-3v-.2c-5.2,1.1-8,9.3-9.7,31.7l18.1,41.8c1.3,3.2,2.2,3.9,4.7,4.3l.9.2c.9.2,1.1.6,1.1,1.1v.4c0,.4-.2.7-.7.7h-20.2c-.6,0-.7-.4-.7-.7v-.4c0-.6.2-.9,1.1-1.1l.9-.2c1.9-.4,2.6-.9,2.6-1.9s-.2-1.1-.4-1.7l-9.1-21.3h-.2c-2.4,23-6.7,29.1-16.6,29.1s-17.7-9.7-17.7-30.6ZM326.8,359.5l-13.4-31.7h-.2c-5.6,9.3-7.1,16.4-7.1,36.2s2.1,28.9,8.6,28.9,9.5-7.5,12.1-33.4ZM317.8,313.2c5-8,6.7-14.9,6.7-27.1s-2.1-16.8-7.1-16.8-8,4.1-8,15.1,1.5,13.6,4.3,20l3.7,8.8h.4Z"/>
        <path class="st7" d="M394,371.5v-80.3c0-15.7,8.2-25.2,21.3-25.2s9.3,1.5,12.9,5,2.2,2.1,3.2,2.1,1.5-.7,1.9-2.6l.6-3c.2-.7.4-.9,1.1-.9h.6c.4,0,.7.2.7.7v41.3c0,.6-.4.7-.7.7h-.6c-.6,0-.9-.2-1.1-.9l-2.4-14c-3.2-18.7-7.1-24.5-15.3-24.5s-10.8,4.9-10.8,15.3v92.2c0,10.8,3.7,15.3,11.6,15.3s16.8-7.8,16.8-21.8v-17.6c0-1.1.4-1.5,1.5-1.5h.7c1.1,0,1.5.4,1.5,1.5v18.1c0,15.7-8.2,25.2-21.7,25.2s-21.7-9.5-21.7-25.2Z"/>
        <path class="st7" d="M447.8,394.1v-.4c0-.6.2-.9,1.1-1.1l.9-.2c2.6-.6,3-1.1,3-3.2v-82.2c0-2.1-.4-2.6-3-3.2l-.9-.2c-.9-.2-1.1-.6-1.1-1.1v-.4c0-.4.2-.7.7-.7h12.5c.9,0,1.1.6,1.1,1.5v11.6h.2c2.2-9.9,6.7-14.9,13.6-14.9s11.6,5.2,11.6,17.4-3.5,11-8,11-6.7-2.8-6.7-6.9,2.6-6.9,6.3-6.9,2.6.4,3.5,1.1h.2v-1.3c0-8-3.2-10.8-7.3-10.8-8,0-12.1,9.3-12.7,25v60.5c0,2.2.6,2.8,4.5,3.5l1.9.4c.9.2,1.1.6,1.1,1.1v.4c0,.4-.2.7-.7.7h-21.1c-.6,0-.7-.4-.7-.7Z"/>
        <path class="st7" d="M497.8,378.4v-71.3c0-2.1-.4-2.6-3-3.2l-.9-.2c-.9-.2-1.1-.6-1.1-1.1v-.4c0-.4.2-.7.7-.7h12.9c.9,0,1.5.6,1.5,1.5v81c0,6.3,1.7,9,5.6,9,5.6,0,9.5-6,11.9-16.8v-69.1c0-2.1-.4-2.6-3-3.2l-.9-.2c-.9-.2-1.1-.6-1.1-1.1v-.4c0-.4.2-.7.7-.7h12.9c.9,0,1.5.6,1.5,1.5v86.3c0,2.1.4,2.6,3,3.2l.9.2c.9.2,1.1.6,1.1,1.1v.4c0,.4-.2.7-.7.7h-11.9c-.9,0-1.5-.6-1.5-1.5v-9.7h-.2c-3.2,9-7.8,13.1-14.9,13.1s-13.4-6.3-13.4-18.3Z"/>
        <path class="st7" d="M548.2,394.1v-.4c0-.6.2-.9,1.1-1.1l.9-.2c2.6-.6,3-1.1,3-3.2v-82.2c0-2.1-.4-2.6-3-3.2l-.9-.2c-.9-.2-1.1-.6-1.1-1.1v-.4c0-.4.2-.7.7-.7h11.9c.9,0,1.5.6,1.5,1.5v9.3h.2c3-8.8,7.7-12.7,14.4-12.7s11.4,4.3,12.5,12.7h.2c3-8.8,7.7-12.7,14.6-12.7s13.3,6.3,13.3,18.3v71.3c0,2.1.4,2.6,3,3.2l.9.2c.9.2,1.1.6,1.1,1.1v.4c0,.4-.2.7-.7.7h-18.7c-.6,0-.7-.4-.7-.7v-.4c0-.6.2-.9,1.1-1.1l.9-.2c2.6-.6,3-1.1,3-3.2v-76c0-6.7-1.7-9.9-5.4-9.9s-9.5,6-11.6,16.2v69.6c0,2.1.4,2.6,3,3.2l.9.2c.9.2,1.1.6,1.1,1.1v.4c0,.4-.2.7-.7.7h-18.7c-.6,0-.7-.4-.7-.7v-.4c0-.6.2-.9,1.1-1.1l.9-.2c2.6-.6,3-1.1,3-3.2v-76c0-6.7-1.7-9.9-5.4-9.9s-9.5,6-11.6,16.2v69.6c0,2.1.4,2.6,3,3.2l.9.2c.9.2,1.1.6,1.1,1.1v.4c0,.4-.2.7-.7.7h-18.7c-.6,0-.7-.4-.7-.7Z"/>
        <path class="st7" d="M643,383.8h-.2l-6,11.8c-.2.4-.4.7-1.1.7h-.2c-.7,0-.9-.2-.9-.9v-127.5c0-2.1-.4-2.6-3-3.2l-.9-.2c-.9-.2-1.1-.6-1.1-1.1v-.4c0-.4.2-.7.7-.7h12.9c.9,0,1.5.6,1.5,1.5v48.5h.2c3-8.6,7.8-12.7,14.8-12.7s13.4,6.3,13.4,18.3v60.5c0,11.9-4.7,18.3-13.8,18.3s-12.5-4.5-16.2-12.9ZM663,384v-71.7c0-6.3-1.7-9-5.6-9-6.2,0-10.5,7.5-12.7,20.5v52.3c2.4,10.8,6.5,16.8,12.3,16.8s6-2.6,6-9Z"/>
      </g>
    </g>
  </g>
</svg>